<svg width="400" height="400" viewBox="0 0 400 400" fill="none" xmlns="http://www.w3.org/2000/svg">
  <rect width="400" height="400" fill="white"/>
  
  <g transform="translate(140, 60)">
    <path d="M60 30C35 30 15 50 15 85C15 130 60 160 60 160C60 160 105 130 105 85C105 50 85 30 60 30Z" fill="black"/>
    <circle cx="60" cy="25" r="18" fill="black"/>
    <path d="M50 10Q45 0 35 5" stroke="black" stroke-width="4" stroke-linecap="round"/>
    <path d="M70 10Q75 0 85 5" stroke="black" stroke-width="4" stroke-linecap="round"/>
    <path d="M15 70H0M15 95H0M15 120H0" stroke="black" stroke-width="4" stroke-linecap="round"/>
    <path d="M105 70H120M105 95H120M105 120H120" stroke="black" stroke-width="4" stroke-linecap="round"/>
  </g>

  <text x="200" y="300" text-anchor="middle" font-family="Arial, Helvetica, sans-serif" font-weight="bold" font-size="42" fill="black">BLACK_BUG</text>
  <text x="200" y="350" text-anchor="middle" font-family="Arial, Helvetica, sans-serif" font-weight="bold" font-size="32" fill="black" letter-spacing="2">PLATFORM</text>
</svg>